<?xml version="1.0" encoding="UTF-8"?>
<!DOCTYPE svg PUBLIC "-//W3C//DTD SVG 1.1//EN" "http://www.w3.org/Graphics/SVG/1.1/DTD/svg11.dtd">
<!-- Creator: CorelDRAW 2020 (64-Bit) -->
<svg xmlns="http://www.w3.org/2000/svg" xml:space="preserve" width="8.75in" height="9.05in" version="1.1" style="shape-rendering:geometricPrecision; text-rendering:geometricPrecision; image-rendering:optimizeQuality; fill-rule:evenodd; clip-rule:evenodd"
viewBox="0 0 8750 9050"
 xmlns:xlink="http://www.w3.org/1999/xlink"
 xmlns:xodm="http://www.corel.com/coreldraw/odm/2003">
 <defs>
  <style type="text/css">
   <![CDATA[
    .str0 {stroke:white;stroke-width:222.22;stroke-linejoin:bevel;stroke-miterlimit:2.61313}
    .fil0 {fill:none}
   ]]>
  </style>
 </defs>
 <g id="Layer_x0020_1">
  <metadata id="CorelCorpID_0Corel-Layer"/>
  <polyline class="fil0 str0" points="2126,6065.49 1669.52,681.1 2074.12,509.93 "/>
  <polyline class="fil0 str0" points="2066.52,6046.35 6493.69,7471.25 2013.94,415.13 "/>
  <polyline class="fil0 str0" points="6493.69,7460.22 5886.8,8757.69 3783.64,8747.23 2538.49,6874.27 2088.56,6042.42 "/>
  <polyline class="fil0 str0" points="2602.34,6935.78 454.81,6354.8 268.07,6666.04 1803.5,8761.7 3806.67,8747.32 "/>
  <polyline class="fil0 str0" points="6493.69,7471.25 6887.92,4405.57 8309.23,4374.45 8506.35,4166.96 8309.23,3886.85 6213.57,2890.89 6026.83,2984.26 4966.66,5066.02 "/>
  <polyline class="fil0 str0" points="5636.32,3751.06 3521.39,525.49 3179.02,577.37 3258.02,2374.71 "/>
  <line class="fil0 str0" x1="6887.92" y1="4405.57" x2="5318.3" y2= "4375.54" />
 </g>
</svg>
